# xmcd
#
# Track frame offsets: 
#        200
#        22552
#        42857
#        65792
#        87192
#        104262
#        122360
#        144780
#        172385
#        191440
#        212425
#
# Disc length: 3264 seconds
#
# Revision: 1
# Processed by: cddbd v1.5.2PL0 Copyright (c) Steve Scherf et al.
# Submitted via: ExactAudioCopyFreeDBPlugin 1.0
#
DISCID=890cbe0b
DTITLE=Jesse Fortune - Fortune Tellin' Man
DYEAR=1993
DGENRE=Blues
TTITLE0=Dark Is The Night
TTITLE1=Fortune Tellin' Man
TTITLE2=Get Mad At My Money
TTITLE3=Sandu
TTITLE4=Too Many Cooks
TTITLE5=Lovingest Woman In Town
TTITLE6=Specter's Walk
TTITLE7=Gamblers Blues
TTITLE8=Be Careful With A Fool
TTITLE9=Ain't About The Money
TTITLE10=Losing Hand
EXTD=
EXTT0=
EXTT1=
EXTT2=
EXTT3=
EXTT4=
EXTT5=
EXTT6=
EXTT7=
EXTT8=
EXTT9=
EXTT10=
PLAYORDER=
